<?xml version="1.0" encoding="UTF-8" standalone="no"?>
<!-- Created with Inkscape (http://www.inkscape.org/) -->

<svg
   width="32"
   height="32"
   viewBox="0 0 32 32"
   version="1.1"
   id="svg1"
   xml:space="preserve"
   xmlns="http://www.w3.org/2000/svg"
   xmlns:svg="http://www.w3.org/2000/svg"><defs
     id="defs1" /><g
     id="layer1"><path
       style="fill:#000000;stroke-width:0.470671"
       d="M 5.7370937,26.040937 C 5.3394708,25.993464 4.729481,25.869527 4.3815608,25.765519 4.0336407,25.661512 3.5049829,25.464411 3.2067657,25.327518 2.9085485,25.190624 2.4533084,24.908529 2.1951208,24.70064 1.9369332,24.492751 1.564308,24.080989 1.3670642,23.785615 1.1698212,23.49024 0.92497706,22.993748 0.8229666,22.682299 0.72095613,22.370849 0.61106062,21.810944 0.57875373,21.438066 0.54534957,21.052537 0.56491176,20.467842 0.62410743,20.082534 0.68135808,19.709868 0.84674377,19.150453 0.99163046,18.839386 1.1365177,18.52832 1.4625046,18.05447 1.7160457,17.786387 1.9695869,17.518305 2.4632342,17.106943 2.8130403,16.872247 L 3.4490509,16.445531 2.7924809,16.18174 C 2.4313669,16.036654 1.9394041,15.773697 1.6992295,15.597393 1.459055,15.421091 1.1213893,15.104575 0.94886159,14.894027 0.77633425,14.68348 0.53792573,14.290663 0.41906475,14.021101 0.30020446,13.751537 0.15699123,13.315489 0.10081338,13.052101 0.04463623,12.788715 -7.257708e-4,12.239724 8.797164e-6,11.832123 7.6176391e-4,11.42452 0.05919477,10.847031 0.12990144,10.548814 0.2006081,10.250597 0.34257326,9.8172073 0.44537957,9.5857271 0.54818589,9.3542467 0.7947697,8.9475869 0.99334432,8.6820385 1.1919191,8.4164901 1.5814578,8.0109946 1.8589864,7.7809376 2.1365142,7.5508805 2.69563,7.1970103 3.1014658,6.9945591 3.5073014,6.792108 4.144344,6.5422653 4.5171155,6.4393527 5.9904446,6.0326042 6.5534771,5.9970676 12.559945,5.9317145 c 5.94573,-0.064692 6.514898,-0.040185 6.886934,0.2964996 l 0.161836,0.1464597 V 9.659131 c 0,1.806452 0.03356,3.284457 0.07457,3.284457 0.04102,0 0.373741,-0.579489 0.739393,-1.287755 0.365654,-0.708267 0.887128,-1.6740835 1.158836,-2.146261 0.271707,-0.4721774 0.813298,-1.3351313 1.203536,-1.9176753 0.41222,-0.6153569 0.709525,-1.1534535 0.709525,-1.2841791 V 6.0827091 l 4.224744,0.019015 4.224745,0.019015 0.02797,0.2890528 L 32,6.6988447 29.188411,11.543276 c -1.546373,2.664439 -2.832061,4.897781 -2.857081,4.962981 -0.02502,0.06519 0.215261,0.520421 0.533957,1.011599 0.318696,0.491176 1.298906,2.148517 2.178248,3.682976 0.879342,1.534461 1.742413,3.014427 1.917938,3.288816 0.175525,0.274389 0.356035,0.595943 0.401134,0.714563 l 0.08201,0.215674 -0.247303,0.101405 c -0.166484,0.06826 -1.472231,0.107367 -3.995205,0.119643 -2.061343,0.01014 -3.83951,-0.0064 -3.951486,-0.03631 -0.158893,-0.04258 -0.389678,-0.441444 -1.051202,-1.816758 -2.155704,-4.481726 -2.443374,-5.060655 -2.514648,-5.060655 -0.04184,0 -0.07606,1.498339 -0.07606,3.329641 v 3.329642 l -0.185611,0.167977 -0.185613,0.167978 -1.37325,0.06651 c -1.427055,0.06913 -6.707016,0.232417 -9.6871847,0.299595 -0.9443547,0.02129 -2.0423362,-1.35e-4 -2.4399593,-0.04762 z m 5.3828883,-4.244379 0.174797,-0.09355 v -1.92248 c 0,-1.501453 -0.0276,-1.960216 -0.125997,-2.094794 l -0.125997,-0.172316 -0.890649,0.111519 c -0.5912017,0.07403 -1.0517106,0.189905 -1.3696939,0.344683 -0.3004379,0.146238 -0.5609837,0.356993 -0.6988139,0.565268 -0.1208731,0.182652 -0.2619564,0.554548 -0.3135189,0.826437 -0.066565,0.350997 -0.064488,0.635296 0.00717,0.98044 0.079272,0.381851 0.1847095,0.569895 0.4916479,0.876832 0.2515926,0.251593 0.5461616,0.438487 0.8272031,0.524833 0.2400579,0.07376 0.7543039,0.136926 1.1427687,0.140392 0.388466,0.0035 0.784958,-0.0358 0.881097,-0.08725 z M 10.842934,14.31504 c 0,-0.190059 0.06445,-0.769549 0.143227,-1.287758 0.08277,-0.544489 0.128224,-1.276289 0.107681,-1.733681 -0.01955,-0.435317 -0.08209,-0.838029 -0.13897,-0.894915 -0.07744,-0.07744 -0.353803,-0.07794 -1.1000054,-0.002 -0.6367778,0.06483 -1.1195457,0.16471 -1.3371927,0.276648 -0.1873416,0.09635 -0.4475469,0.290741 -0.5782344,0.431976 -0.2390375,0.258329 -0.378623,0.61225 -0.4794666,1.215697 -0.029995,0.179481 -0.00946,0.536495 0.045627,0.793367 0.05509,0.256872 0.2070257,0.594039 0.3376369,0.749261 0.130612,0.155224 0.41245,0.359624 0.6263086,0.454224 0.2138577,0.0946 0.5608624,0.205952 0.7711208,0.247451 0.2102579,0.0415 0.6567825,0.07991 0.9922768,0.08535 l 0.60999,0.01002 z"
       id="path1"></path></g>
       <style>@media (prefers-color-scheme: light) { :root { filter: none; } }
@media (prefers-color-scheme: dark) { :root { filter: invert(100%); } }
</style>
       </svg>
